<svg width="111" height="68" viewBox="0 0 111 68" fill="none" xmlns="http://www.w3.org/2000/svg">
<path d="M92.5185 37.2H104.222C106.07 37.816 107.64 38.96 108.93 40.632C110.25 42.2747 110.91 44.2987 110.91 46.704C110.91 50.6347 109.356 53.524 106.246 55.372L110.69 68H104.53L100.79 56.78H98.4585V68H92.5185V37.2ZM98.4585 42.48V51.852H102.242C102.741 51.7347 103.284 51.236 103.87 50.356C104.486 49.4467 104.794 48.3907 104.794 47.188C104.794 45.9853 104.53 44.9293 104.002 44.02C103.504 43.1107 103.005 42.5973 102.506 42.48H98.4585Z" fill="black"/>
<path d="M84.0602 68L83.1362 63.116H76.1842L75.2602 68H69.2762L75.2161 37.2H84.3242L89.9562 68H84.0602ZM79.5722 42.92L77.8562 53.172L76.8882 58.408H82.3882L81.3762 53.172L79.6601 42.92H79.5722Z" fill="black"/>
<path d="M51.5692 68V37.2H67.3652V42.48H57.5972V49.828H66.3092V54.932H57.5972V62.896H67.5412V68H51.5692Z" fill="black"/>
<path d="M38.4328 68L35.3528 49.828H35.1768L32.0088 68H25.8488L21.5808 37.2H27.4768L28.7088 46.264L29.6328 56.472H29.8528L31.4808 46.308L32.8448 37.2H37.8168L39.1368 46.308L40.8088 56.472H41.0288L41.9088 46.264L43.1408 37.2H49.0368L44.7688 68H38.4328Z" fill="black"/>
<path d="M55.6513 31V0.200012H71.4473V5.48001H61.6793V12.828H70.3913V17.932H61.6793V25.896H71.6233V31H55.6513Z" fill="black"/>
<path d="M33.6083 31V0.200012H46.1483C47.5856 0.728012 48.8616 1.65201 49.9763 2.97201C51.091 4.29201 51.6483 5.89068 51.6483 7.76801C51.6483 11.0827 50.563 13.4 48.3923 14.72V14.896C51.091 16.392 52.4403 18.7387 52.4403 21.936C52.4403 25.6027 50.5776 28.624 46.8523 31H33.6083ZM39.5923 12.916H43.9483C45.239 12.124 45.8843 10.9213 45.8843 9.30801C45.8843 7.69468 45.283 6.41868 44.0803 5.48001H39.5923V12.916ZM39.5923 25.896H44.1243C44.6523 25.5147 45.1216 24.9133 45.5323 24.092C45.9723 23.2707 46.1923 22.4493 46.1923 21.628C46.1923 20.8067 46.0163 20.0587 45.6643 19.384C45.3123 18.7093 44.8723 18.2107 44.3443 17.888H39.5923V25.896Z" fill="black"/>
<path d="M23.3388 31V0.200012H29.3668V31H23.3388Z" fill="black"/>
<path d="M20.9882 0.200012L14.7402 31H6.46821L0.220215 0.200012H6.55622L8.97622 14.456L10.4722 23.696H10.7362L12.2322 14.456L14.6522 0.200012H20.9882Z" fill="black"/>
<path d="M101.8 16.4641L106.233 12.0324L109.768 15.5676L101.8 23.5354L95.5998 17.3352L89.4006 23.5354L83.1994 17.3352L78.7678 21.7678L75.2326 18.2326L83.2004 10.2649L89.3996 16.4641L95.5998 10.2649L101.8 16.4641Z" fill="black"/>
</svg>
